<svg width="120" height="112" viewBox="0 0 120 112" fill="none" xmlns="http://www.w3.org/2000/svg">
<g clip-path="url(#clip0_12211_9057)">
<g clip-path="url(#clip1_12211_9057)">
<path d="M74.7008 22.1601C74.2178 22.9077 62.3268 40.7101 47.4689 36.131C38.223 33.2807 31.852 36.1777 29 38V10.1984C33.692 9.70778 42.5929 9.73115 50.1139 15.0812C60.8318 22.6974 72.6998 19.5201 72.8148 19.4968C73.5048 19.2865 74.2638 19.5668 74.6778 20.1509C75.0918 20.7583 75.1148 21.5527 74.7008 22.1601Z" fill="#00B1AE"/>
<path d="M29 3.5V80.5C29 82.425 26.75 84 24 84C21.25 84 19 82.425 19 80.5V3.5C19 1.575 21.25 0 24 0C26.75 0 29 1.575 29 3.5Z" fill="#1E2127"/>
</g>
<path d="M60.2326 118.596C65.6914 118.596 70.1165 114.171 70.1165 108.711C70.1165 103.252 65.6914 98.8262 60.2326 98.8262C54.7738 98.8262 50.3484 103.252 50.3484 108.711C50.3484 114.171 54.7738 118.596 60.2326 118.596Z" fill="#E83090"/>
<path d="M60.5475 50C51.696 49.9916 42.9588 52.0332 35 55.9698V68.7186C42.0908 64.1195 50.2569 61.5163 58.6629 61.1752C67.0686 60.834 75.4129 62.7672 82.8422 66.777C90.2714 70.7868 96.5193 76.7293 100.947 83.9968C105.374 91.2644 107.822 99.5962 108.041 108.141V144C114.308 135.126 118.044 124.668 118.84 113.776C119.635 102.885 117.459 91.9808 112.549 82.2643C107.64 72.5479 100.189 64.3953 91.0142 58.703C81.8394 53.0107 71.2974 49.9993 60.5475 50Z" fill="#1E2127"/>
<path d="M60.683 156.922C48.2118 156.921 36.2196 152.145 27.1943 143.583C18.1694 135.022 12.8039 123.332 12.2118 110.94H12.1556V74C3.42838 86.1326 -0.391425 101.086 1.45431 115.892C3.30006 130.697 10.6766 144.27 22.1189 153.914C33.5611 163.558 48.2314 168.568 63.2155 167.949C78.2001 167.329 92.4018 161.126 103 150.57V132.286C98.7811 139.76 92.6369 145.982 85.1997 150.312C77.7625 154.641 69.3004 156.923 60.683 156.922Z" fill="#1E2127"/>
<path d="M60.2369 124.479C56.6556 124.482 53.1769 123.283 50.3581 121.074V132.407C55.4969 134.521 61.179 134.927 66.5662 133.566C71.9538 132.204 76.7607 129.147 80.2785 124.846C83.7964 120.544 85.8386 115.225 86.104 109.674C86.3695 104.123 84.8441 98.6341 81.7528 94.0161C78.6615 89.3981 74.1682 85.8963 68.9354 84.0269C63.7026 82.1572 58.0075 82.0192 52.6901 83.6331C47.3731 85.2467 42.7153 88.5272 39.4041 92.9898C36.0925 97.4527 34.303 102.862 34.2993 108.419V141.744C37.3127 144.117 40.6366 146.066 44.1785 147.537V108.404C44.1785 105.227 45.1202 102.122 46.8847 99.4809C48.6494 96.8399 51.1574 94.7813 54.0915 93.5658C57.026 92.3503 60.2547 92.0323 63.3697 92.6518C66.4847 93.2716 69.3463 94.801 71.5921 97.0472C73.8379 99.2933 75.3673 102.155 75.9868 105.27C76.6066 108.386 76.2883 111.615 75.0732 114.549C73.8576 117.484 71.7994 119.992 69.1584 121.757C66.5178 123.522 63.4131 124.464 60.2369 124.464V124.479Z" fill="#1E2127"/>
<path d="M28.8975 135.261V108.575C28.9005 101.893 31.0473 95.3828 35.0306 89.9775C39.014 84.5722 44.629 80.5486 51.0723 78.4832C57.5152 76.4177 64.4559 76.4163 70.8998 78.4791C77.3441 80.542 82.9608 84.5633 86.9465 89.967C90.9318 95.3706 93.0816 101.88 93.0873 108.562C93.0933 115.245 90.9552 121.758 86.9792 127.168C83.0032 132.579 77.3935 136.61 70.9533 138.684C64.513 140.758 57.5724 140.768 51.1255 138.714V148.837C58.3953 150.573 66.003 150.363 73.1622 148.227C80.3217 146.092 86.773 142.109 91.8489 136.69C96.9252 131.272 100.442 124.615 102.036 117.407C103.63 110.198 103.242 102.701 100.915 95.69C98.5867 88.6791 94.4025 82.4084 88.7944 77.5266C83.1867 72.6449 76.3584 69.3291 69.0161 67.9221C61.6737 66.5151 54.0837 67.068 47.0308 69.5236C39.9776 71.9792 33.7175 76.2484 28.8975 81.8897V68.359V60C25.3219 62.2709 22.0037 64.9137 19 67.8829V109.818C19.2804 119.161 22.7701 128.131 28.8975 135.261Z" fill="#1E2127"/>
</g>
<defs>
<clipPath id="clip0_12211_9057">
<rect width="120" height="112" fill="white"/>
</clipPath>
<clipPath id="clip1_12211_9057">
<rect width="76" height="76" fill="white" transform="translate(19)"/>
</clipPath>
</defs>
</svg>
